<svg xmlns="http://www.w3.org/2000/svg" viewBox="0 0 960 640" xml:space="preserve"><path fill="#FFF" d="M736.273 564.606v11.824h-2.957v-11.824h-3.423v-2.937h9.802v2.937h-3.422zm16.022 11.824v-8.712l-2.49 5.428h-2.611l-2.49-5.428v8.712h-2.956V561.67h2.956l3.796 7.883 3.795-7.883h2.957v14.761h-2.957z"/><path fill="#8D9093" d="M900.81 329.524c-12.38-85.334-58.12-142.752-58.12-142.752 1.687 11.61 4.285 46.093 4.285 46.093s-21.716-68.841-114.779-67.11c-12.62-32.466-67.675-144.822-218.402-122.954C315.895 71.51 131.015 265 131.015 265l69.244-17.488C82.719 383.968 57.187 572.137 57.187 572.137l28.64 5.72S214.53 449.983 365.61 428.067c93.81-13.615 196.797 13.375 206.774 82.11 7.269 50.111-31.145 83.193-31.145 83.193s77.272 26.808 121.895-27.39l20.485 11.876c60.398-37.464 87.97-94.916 94.95-95.93 8.894-1.291 31.73 9.016 31.73 9.016l13.402-43.53c6.004.84 13.698 1.334 21.488.205 49.222-7.139 63.406-64.458 55.62-118.093z"/><path fill="#041E42" d="M889.213 331.206c-7.034-48.47-32.585-99.416-32.585-99.416 5.313 36.629-8.977 76.619-8.977 76.619s13.971-138.237-123.673-130.816c0 0-41.771-147.378-208.502-123.19-172.17 24.981-343.978 188.286-343.978 188.286l65.716-16.603C106.208 347.49 70.604 562.859 70.604 562.859l11.44 2.282s128.875-126.474 281.885-148.676c101.22-14.686 209.11 16.604 220.05 92.026 6.734 46.397-21.107 77.865-21.107 77.865s65.134 14.917 96.963-35.828l23.329 13.508c62.116-41.74 77.074-91.35 93.401-93.716 10.334-1.503 26.3 4.987 26.3 4.987l12.76-41.501s14.199 4.2 27.882 2.213c44.908-6.516 51.49-64.955 45.706-104.813zm-48.33 87.097c-17.36 2.522-35.885-8.332-35.885-8.332l-13.269 43.564s-52.553-10.854-66.904-42.543c0 0 20.656-40.893-5.393-97.3-67.834 17.678 6.206-42.394 52.36-81.351 0 0-49.481 1.944-104.221 29.386 0 0-70.972-83.189-182.928-66.946-137.337 19.923-245.234 130.235-245.234 130.235s88.726-76.178 198.95-92.166c123.32-17.895 177.851 67.12 177.851 67.12-48.223 53.818-13.349 96.318 9.142 97.746-5.61 29.181 45.694 51.945 34.141 113.247 30.651-23.557 50.578-64.796 50.578-64.796 13.793 20.8 35.034 29.49 35.034 29.49-27.72 40.232-63.806 67.234-63.806 67.234l-25.835-17.515c-25.407 44.703-64.102 43.673-64.102 43.673s14.177-26.473 8.222-67.523c-7.413-51.098-53.593-84.454-111.026-99.204-35.831-9.205-76.038-11.169-113.958-5.67C262.13 412.971 162.654 479.66 116.08 515.43c-17.9 13.748-27.993 22.935-27.993 22.935s46.83-213.952 194.017-335.095l-46.659 8.427S373.916 91.768 514.88 71.317c167.316-24.274 198.388 127.034 198.388 127.034 120.794-14.355 125.355 91.005 116.738 139.817 0 0 26.884 15.98 36.93-40.044 8.563 25.088 20.613 113.412-26.053 120.179zm-163.157-28.74c-33.454 4.849-65.883-4.828-69.305-28.4-1.678-11.572.327-22.391 4.99-32.323 16.107-34.32 63.988-58.013 101.582-65.601-52.819 45.53-51.414 72.772-7.6 66.41 0 0 9.043 20.19 3.13 37.302-3.596 10.417-12.719 19.702-32.797 22.611z"/><g fill="#FFF"><path d="M714.993 263.239c-37.594 7.588-85.475 31.282-101.582 65.601-9.524 56.833 53.301 50.275 97.112 38.11 5.913-17.112-3.13-37.3-3.13-37.3-43.814 6.36-45.219-20.88 7.6-66.411zM545.74 395.752l31.172-25.433s-44.114-87.457-150.355-72.046c-148.567 21.56-310.478 217.156-310.478 217.156s173.733-149.223 304.063-168.135c73.213-10.623 102.725 26.519 102.725 26.519l-34.31 28.51c57.434 14.75 103.614 48.105 111.027 99.203 5.955 41.05-8.222 67.524-8.222 67.524 57.824-66.973-3.646-161-45.622-173.298z"/></g><path fill="#FFB81C" d="M866.935 298.125c-10.044 56.024-36.928 40.043-36.928 40.043 8.616-48.812 4.055-154.172-116.738-139.817 0 0-31.073-151.308-198.389-127.033-140.964 20.45-279.436 140.378-279.436 140.378l46.66-8.427C134.914 324.413 88.085 538.364 88.085 538.364s10.094-9.187 27.993-22.934c0 0 161.911-195.598 310.478-217.157 106.24-15.411 150.354 72.046 150.354 72.046l-31.171 25.433c41.976 12.297 103.446 106.325 45.622 173.298 0 0 38.695 1.029 64.102-43.674l25.835 17.515s36.086-27.002 63.805-67.235c0 0-21.24-8.689-35.033-29.489 0 0-19.927 41.24-50.578 64.797 11.552-61.303-39.75-84.067-34.142-113.248-22.49-1.428-57.364-43.928-9.14-97.746 0 0-54.532-85.015-177.851-67.12-110.225 15.988-198.951 92.167-198.951 92.167S347.306 214.704 484.643 194.78c111.956-16.243 182.928 66.946 182.928 66.946 54.74-27.442 104.22-29.386 104.22-29.386-46.153 38.957-120.194 99.029-52.359 81.35 26.049 56.408 5.393 97.302 5.393 97.302 14.351 31.688 66.904 42.542 66.904 42.542L805 409.97s18.525 10.854 35.884 8.332c46.666-6.767 34.616-95.09 26.052-120.178z"/><path fill="#C8102E" d="M703.258 437.033c-.577-3.98-8.709-10.022-8.336-34.828 0 0-11.48 10.705-10.08 20.374 1.338 9.214 13.817 17.25 13.817 17.25-.93 5.142-.327 8.043-.327 8.043s5.742-5.2 4.926-10.839z"/></svg>